<svg xmlns="http://www.w3.org/2000/svg" fill="none" viewBox="0 0 165 41"><rect width="165" height="41" fill="#fff" rx="20"></rect><path fill="#404040" d="M23.1075 22.892V29h-3.228V11.648h5.652c1.16 0 2.164.136 3.012.408.848.272 1.548.652 2.1 1.14.552.488.96 1.072 1.224 1.752.264.68.396 1.424.396 2.232 0 .84-.14 1.612-.42 2.316-.28.696-.7 1.296-1.26 1.8s-1.26.896-2.1 1.176c-.84.28-1.824.42-2.952.42h-2.424Zm0-2.52h2.424c.592 0 1.108-.072 1.548-.216.44-.152.804-.364 1.092-.636.288-.28.504-.616.648-1.008.144-.4.216-.844.216-1.332 0-.464-.072-.884-.216-1.26-.144-.376-.36-.696-.648-.96-.288-.264-.652-.464-1.092-.6-.44-.144-.956-.216-1.548-.216h-2.424v6.228Zm15 1.848V29h-3.228V11.648h5.292c1.184 0 2.196.124 3.036.372.848.24 1.54.58 2.076 1.02.544.44.94.968 1.188 1.584.256.608.384 1.28.384 2.016 0 .584-.088 1.136-.264 1.656-.168.52-.416.992-.744 1.416-.32.424-.72.796-1.2 1.116-.472.32-1.012.576-1.62.768.408.232.76.564 1.056.996L48.4275 29h-2.904c-.28 0-.52-.056-.72-.168-.192-.112-.356-.272-.492-.48l-3.648-5.556c-.136-.208-.288-.356-.456-.444-.16-.088-.4-.132-.72-.132h-1.38Zm0-2.316h2.016c.608 0 1.136-.076 1.584-.228.456-.152.828-.36 1.116-.624.296-.272.516-.592.66-.96.144-.368.216-.772.216-1.212 0-.88-.292-1.556-.876-2.028-.576-.472-1.46-.708-2.652-.708h-2.064v5.76Zm23.3346-8.256v2.568h-7.692v4.812h6.06v2.484h-6.06v4.908h7.692V29h-10.944V11.648h10.944ZM72.9445 21.8c.136.256.26.524.372.804.12.272.236.548.348.828.112-.288.228-.572.348-.852.12-.28.248-.548.384-.804l5.136-9.612c.064-.12.128-.216.192-.288.072-.072.148-.124.228-.156.088-.032.184-.052.288-.06.104-.008.228-.012.372-.012h2.436V29h-2.844V17.792c0-.208.004-.436.012-.684.016-.248.036-.5.06-.756l-5.244 9.84c-.12.224-.276.4-.468.528-.192.12-.416.18-.672.18h-.444c-.256 0-.48-.06-.672-.18-.192-.128-.348-.304-.468-.528l-5.316-9.876c.032.264.052.524.06.78.016.248.024.48.024.696V29h-2.844V11.648h2.436c.144 0 .268.004.372.012.104.008.196.028.276.06.088.032.168.084.24.156.072.072.14.168.204.288l5.184 9.636ZM90.181 29h-3.24V11.648h3.24V29Zm13.211-14.196c-.088.176-.192.3-.312.372-.112.072-.248.108-.408.108-.16 0-.34-.06-.54-.18-.2-.128-.436-.268-.708-.42-.272-.152-.592-.288-.96-.408-.36-.128-.7882-.192-1.2842-.192-.448 0-.84.056-1.176.168-.328.104-.608.252-.84.444-.224.192-.392.424-.504.696-.112.264-.168.556-.168.876 0 .408.112.748.336 1.02.232.272.536.504.912.696.376.192.804.364 1.284.516.48.152.968.316 1.4642.492.504.168.996.368 1.476.6.48.224.908.512 1.284.864.376.344.676.768.9 1.272.232.504.348 1.116.348 1.836 0 .784-.136 1.52-.408 2.208-.264.68-.656 1.276-1.176 1.788-.512.504-1.14.904-1.884 1.2-.744.288-1.5962.432-2.5562.432-.552 0-1.096-.056-1.632-.168-.536-.104-1.052-.256-1.548-.456-.488-.2-.948-.44-1.38-.72-.424-.28-.804-.592-1.14-.936l.936-1.548c.088-.112.192-.204.312-.276.128-.08.268-.12.42-.12.2 0 .416.084.648.252.232.16.504.34.816.54.32.2.692.384 1.116.552.432.16.948.24 1.548.24.92 0 1.6322-.216 2.1362-.648.504-.44.756-1.068.756-1.884 0-.456-.116-.828-.348-1.116-.224-.288-.524-.528-.9-.72-.3762-.2-.8042-.368-1.2842-.504s-.968-.284-1.464-.444c-.496-.16-.984-.352-1.464-.576-.48-.224-.908-.516-1.284-.876s-.68-.808-.912-1.344c-.224-.544-.336-1.212-.336-2.004 0-.632.124-1.248.372-1.848.256-.6.624-1.132 1.104-1.596.488-.464 1.084-.836 1.788-1.116.704-.28 1.508-.42 2.412-.42 1.0242 0 1.9682.16 2.8322.48.864.32 1.6.768 2.208 1.344l-.792 1.524Zm12.867 0c-.088.176-.192.3-.312.372-.112.072-.248.108-.408.108-.16 0-.34-.06-.54-.18-.2-.128-.436-.268-.708-.42-.272-.152-.592-.288-.96-.408-.36-.128-.788-.192-1.284-.192-.448 0-.84.056-1.176.168-.328.104-.608.252-.84.444-.224.192-.392.424-.504.696-.112.264-.168.556-.168.876 0 .408.112.748.336 1.02.232.272.536.504.912.696.376.192.804.364 1.284.516.48.152.968.316 1.464.492.504.168.996.368 1.476.6.48.224.908.512 1.284.864.376.344.676.768.9 1.272.232.504.348 1.116.348 1.836 0 .784-.136 1.52-.408 2.208-.264.68-.656 1.276-1.176 1.788-.512.504-1.14.904-1.884 1.2-.744.288-1.596.432-2.556.432-.552 0-1.096-.056-1.632-.168-.536-.104-1.052-.256-1.548-.456-.488-.2-.948-.44-1.38-.72-.424-.28-.804-.592-1.14-.936l.936-1.548c.088-.112.192-.204.312-.276.128-.08.268-.12.42-.12.2 0 .416.084.648.252.232.16.504.34.816.54.32.2.692.384 1.116.552.432.16.948.24 1.548.24.92 0 1.632-.216 2.136-.648.504-.44.756-1.068.756-1.884 0-.456-.116-.828-.348-1.116-.224-.288-.524-.528-.9-.72-.376-.2-.804-.368-1.284-.504s-.968-.284-1.464-.444c-.496-.16-.984-.352-1.464-.576-.48-.224-.908-.516-1.284-.876s-.68-.808-.912-1.344c-.224-.544-.336-1.212-.336-2.004 0-.632.124-1.248.372-1.848.256-.6.624-1.132 1.104-1.596.488-.464 1.084-.836 1.788-1.116.704-.28 1.508-.42 2.412-.42 1.024 0 1.968.16 2.832.48.864.32 1.6.768 2.208 1.344l-.792 1.524ZM135.078 29h-2.496c-.28 0-.512-.068-.696-.204-.176-.144-.304-.32-.384-.528l-1.296-3.54h-7.188l-1.296 3.54c-.064.184-.192.352-.384.504-.184.152-.412.228-.684.228h-2.508l6.816-17.352h3.3L135.078 29Zm-11.232-6.552h5.532l-2.112-5.772c-.096-.256-.204-.556-.324-.9-.112-.352-.224-.732-.336-1.14-.112.408-.224.788-.336 1.14-.104.352-.208.66-.312.924l-2.112 5.748Zm22.319-7.644c-.088.176-.192.3-.312.372-.112.072-.248.108-.408.108-.16 0-.34-.06-.54-.18-.2-.128-.436-.268-.708-.42-.272-.152-.592-.288-.96-.408-.36-.128-.788-.192-1.284-.192-.448 0-.84.056-1.176.168-.328.104-.608.252-.84.444-.224.192-.392.424-.504.696-.112.264-.168.556-.168.876 0 .408.112.748.336 1.02.232.272.536.504.912.696.376.192.804.364 1.284.516.48.152.968.316 1.464.492.504.168.996.368 1.476.6.48.224.908.512 1.284.864.376.344.676.768.9 1.272.232.504.348 1.116.348 1.836 0 .784-.136 1.52-.408 2.208-.264.68-.656 1.276-1.176 1.788-.512.504-1.14.904-1.884 1.2-.744.288-1.596.432-2.556.432-.552 0-1.096-.056-1.632-.168-.536-.104-1.052-.256-1.548-.456-.488-.2-.948-.44-1.38-.72-.424-.28-.804-.592-1.14-.936l.936-1.548c.088-.112.192-.204.312-.276.128-.08.268-.12.42-.12.2 0 .416.084.648.252.232.16.504.34.816.54.32.2.692.384 1.116.552.432.16.948.24 1.548.24.92 0 1.632-.216 2.136-.648.504-.44.756-1.068.756-1.884 0-.456-.116-.828-.348-1.116-.224-.288-.524-.528-.9-.72-.376-.2-.804-.368-1.284-.504s-.968-.284-1.464-.444c-.496-.16-.984-.352-1.464-.576-.48-.224-.908-.516-1.284-.876s-.68-.808-.912-1.344c-.224-.544-.336-1.212-.336-2.004 0-.632.124-1.248.372-1.848.256-.6.624-1.132 1.104-1.596.488-.464 1.084-.836 1.788-1.116.704-.28 1.508-.42 2.412-.42 1.024 0 1.968.16 2.832.48.864.32 1.6.768 2.208 1.344l-.792 1.524Z"></path></svg>