<?xml version="1.0" encoding="UTF-8" standalone="no"?>
<!DOCTYPE svg PUBLIC "-//W3C//DTD SVG 1.1//EN"
 "http://www.w3.org/Graphics/SVG/1.1/DTD/svg11.dtd">
<!-- Generated by graphviz version 2.38.0 (20140413.2041)
 -->
<!-- Title: G Pages: 1 -->
<svg width="491pt" height="1166pt"
 viewBox="0.00 0.00 491.00 1166.00" xmlns="http://www.w3.org/2000/svg" xmlns:xlink="http://www.w3.org/1999/xlink">
<g id="graph0" class="graph" transform="scale(1 1) rotate(0) translate(4 1162)">
<title>G</title>
<polygon fill="white" stroke="none" points="-4,4 -4,-1162 487,-1162 487,4 -4,4"/>
<g id="clust1" class="cluster"><title>cluster_Global</title>
<path fill="none" stroke="gray" d="M20,-8C20,-8 463,-8 463,-8 469,-8 475,-14 475,-20 475,-20 475,-1138 475,-1138 475,-1144 469,-1150 463,-1150 463,-1150 20,-1150 20,-1150 14,-1150 8,-1144 8,-1138 8,-1138 8,-20 8,-20 8,-14 14,-8 20,-8"/>
<text text-anchor="middle" x="241.5" y="-1137.2" font-family="Times New Roman,serif" font-size="11.00" fill="gray">Global</text>
</g>
<g id="clust2" class="cluster"><title>cluster_\Unicef</title>
<path fill="none" stroke="gray" d="M28,-16C28,-16 455,-16 455,-16 461,-16 467,-22 467,-28 467,-28 467,-1110 467,-1110 467,-1116 461,-1122 455,-1122 455,-1122 28,-1122 28,-1122 22,-1122 16,-1116 16,-1110 16,-1110 16,-28 16,-28 16,-22 22,-16 28,-16"/>
<text text-anchor="middle" x="241.5" y="-1109.2" font-family="Times New Roman,serif" font-size="11.00" fill="gray">Unicef</text>
</g>
<g id="clust3" class="cluster"><title>cluster_\Unicef\TrajetoriaEscolar</title>
<path fill="none" stroke="gray" d="M36,-24C36,-24 447,-24 447,-24 453,-24 459,-30 459,-36 459,-36 459,-1082 459,-1082 459,-1088 453,-1094 447,-1094 447,-1094 36,-1094 36,-1094 30,-1094 24,-1088 24,-1082 24,-1082 24,-36 24,-36 24,-30 30,-24 36,-24"/>
<text text-anchor="middle" x="241.5" y="-1081.2" font-family="Times New Roman,serif" font-size="11.00" fill="gray">TrajetoriaEscolar</text>
</g>
<g id="clust4" class="cluster"><title>cluster_\Unicef\TrajetoriaEscolar\Contract</title>
<path fill="none" stroke="gray" d="M44,-266C44,-266 188,-266 188,-266 194,-266 200,-272 200,-278 200,-278 200,-704 200,-704 200,-710 194,-716 188,-716 188,-716 44,-716 44,-716 38,-716 32,-710 32,-704 32,-704 32,-278 32,-278 32,-272 38,-266 44,-266"/>
<text text-anchor="middle" x="116" y="-703.2" font-family="Times New Roman,serif" font-size="11.00" fill="gray">Contract</text>
</g>
<g id="clust5" class="cluster"><title>cluster_\Unicef\TrajetoriaEscolar\Model</title>
<path fill="none" stroke="gray" d="M78,-724C78,-724 408.5,-724 408.5,-724 414.5,-724 420.5,-730 420.5,-736 420.5,-736 420.5,-1054 420.5,-1054 420.5,-1060 414.5,-1066 408.5,-1066 408.5,-1066 78,-1066 78,-1066 72,-1066 66,-1060 66,-1054 66,-1054 66,-736 66,-736 66,-730 72,-724 78,-724"/>
<text text-anchor="middle" x="243.25" y="-1053.2" font-family="Times New Roman,serif" font-size="11.00" fill="gray">Model</text>
</g>
<g id="clust6" class="cluster"><title>cluster_\Unicef\TrajetoriaEscolar\Repository</title>
<path fill="none" stroke="gray" d="M268,-374C268,-374 439,-374 439,-374 445,-374 451,-380 451,-386 451,-386 451,-704 451,-704 451,-710 445,-716 439,-716 439,-716 268,-716 268,-716 262,-716 256,-710 256,-704 256,-704 256,-386 256,-386 256,-380 262,-374 268,-374"/>
<text text-anchor="middle" x="353.5" y="-703.2" font-family="Times New Roman,serif" font-size="11.00" fill="gray">Repository</text>
</g>
<g id="clust7" class="cluster"><title>cluster_\Unicef\TrajetoriaEscolar\Service</title>
<path fill="none" stroke="gray" d="M295,-132C295,-132 412,-132 412,-132 418,-132 424,-138 424,-144 424,-144 424,-354 424,-354 424,-360 418,-366 412,-366 412,-366 295,-366 295,-366 289,-366 283,-360 283,-354 283,-354 283,-144 283,-144 283,-138 289,-132 295,-132"/>
<text text-anchor="middle" x="353.5" y="-353.2" font-family="Times New Roman,serif" font-size="11.00" fill="gray">Service</text>
</g>
<!-- \\Unicef\\TrajetoriaEscolar\\Contract\\IDistorcao -->
<g id="node1" class="node"><title>\\Unicef\\TrajetoriaEscolar\\Contract\\IDistorcao</title>
<polygon fill="none" stroke="black" points="158,-688 74,-688 74,-652 158,-652 158,-688"/>
<text text-anchor="middle" x="116" y="-667.2" font-family="Courier,monospace" font-size="11.00">IDistorcao</text>
</g>
<!-- \\Unicef\\TrajetoriaEscolar\\Contract\\IDistorcaoRepository -->
<g id="node2" class="node"><title>\\Unicef\\TrajetoriaEscolar\\Contract\\IDistorcaoRepository</title>
<polygon fill="none" stroke="black" points="192,-634 40,-634 40,-598 192,-598 192,-634"/>
<text text-anchor="middle" x="116" y="-613.2" font-family="Courier,monospace" font-size="11.00">IDistorcaoRepository</text>
</g>
<!-- \\Unicef\\TrajetoriaEscolar\\Contract\\IEscolaRepository -->
<g id="node3" class="node"><title>\\Unicef\\TrajetoriaEscolar\\Contract\\IEscolaRepository</title>
<polygon fill="none" stroke="black" points="181.5,-580 50.5,-580 50.5,-544 181.5,-544 181.5,-580"/>
<text text-anchor="middle" x="116" y="-559.2" font-family="Courier,monospace" font-size="11.00">IEscolaRepository</text>
</g>
<!-- \\Unicef\\TrajetoriaEscolar\\Contract\\IEstadoRepository -->
<g id="node4" class="node"><title>\\Unicef\\TrajetoriaEscolar\\Contract\\IEstadoRepository</title>
<polygon fill="none" stroke="black" points="181.5,-526 50.5,-526 50.5,-490 181.5,-490 181.5,-526"/>
<text text-anchor="middle" x="116" y="-505.2" font-family="Courier,monospace" font-size="11.00">IEstadoRepository</text>
</g>
<!-- \\Unicef\\TrajetoriaEscolar\\Contract\\IMapaRepository -->
<g id="node5" class="node"><title>\\Unicef\\TrajetoriaEscolar\\Contract\\IMapaRepository</title>
<polygon fill="none" stroke="black" points="175,-472 57,-472 57,-436 175,-436 175,-472"/>
<text text-anchor="middle" x="116" y="-451.2" font-family="Courier,monospace" font-size="11.00">IMapaRepository</text>
</g>
<!-- \\Unicef\\TrajetoriaEscolar\\Contract\\IMunicipioRepository -->
<g id="node6" class="node"><title>\\Unicef\\TrajetoriaEscolar\\Contract\\IMunicipioRepository</title>
<polygon fill="none" stroke="black" points="192,-418 40,-418 40,-382 192,-382 192,-418"/>
<text text-anchor="middle" x="116" y="-397.2" font-family="Courier,monospace" font-size="11.00">IMunicipioRepository</text>
</g>
<!-- \\Unicef\\TrajetoriaEscolar\\Contract\\IPainelRepository -->
<g id="node7" class="node"><title>\\Unicef\\TrajetoriaEscolar\\Contract\\IPainelRepository</title>
<polygon fill="none" stroke="black" points="181.5,-364 50.5,-364 50.5,-328 181.5,-328 181.5,-364"/>
<text text-anchor="middle" x="116" y="-343.2" font-family="Courier,monospace" font-size="11.00">IPainelRepository</text>
</g>
<!-- \\Unicef\\TrajetoriaEscolar\\Contract\\IService -->
<g id="node8" class="node"><title>\\Unicef\\TrajetoriaEscolar\\Contract\\IService</title>
<polygon fill="none" stroke="black" points="151.5,-310 80.5,-310 80.5,-274 151.5,-274 151.5,-310"/>
<text text-anchor="middle" x="116" y="-289.2" font-family="Courier,monospace" font-size="11.00">IService</text>
</g>
<!-- \\Unicef\\TrajetoriaEscolar\\Model\\Distorcao -->
<g id="node9" class="node"><title>\\Unicef\\TrajetoriaEscolar\\Model\\Distorcao</title>
<polygon fill="none" stroke="black" points="158,-984 74,-984 74,-948 158,-948 158,-984"/>
<text text-anchor="start" x="82" y="-969.2" font-family="Courier,monospace" font-size="11.00">«abstract»</text>
<text text-anchor="start" x="85.5" y="-957.2" font-family="Courier,monospace" font-size="11.00">Distorcao</text>
</g>
<!-- \\Unicef\\TrajetoriaEscolar\\Model\\DistorcaoAno -->
<g id="node10" class="node"><title>\\Unicef\\TrajetoriaEscolar\\Model\\DistorcaoAno</title>
<polygon fill="none" stroke="black" points="402.5,-1038 304.5,-1038 304.5,-1002 402.5,-1002 402.5,-1038"/>
<text text-anchor="middle" x="353.5" y="-1017.2" font-family="Courier,monospace" font-size="11.00">DistorcaoAno</text>
</g>
<!-- \\Unicef\\TrajetoriaEscolar\\Model\\DistorcaoAno&#45;&gt;\\Unicef\\TrajetoriaEscolar\\Model\\Distorcao -->
<g id="edge1" class="edge"><title>\\Unicef\\TrajetoriaEscolar\\Model\\DistorcaoAno&#45;&gt;\\Unicef\\TrajetoriaEscolar\\Model\\Distorcao</title>
<path fill="none" stroke="black" d="M304.275,-1008.94C264.577,-999.839 208.455,-986.97 168.013,-977.697"/>
<polygon fill="none" stroke="black" points="168.618,-974.245 158.088,-975.422 167.053,-981.068 168.618,-974.245"/>
</g>
<!-- \\Unicef\\TrajetoriaEscolar\\Model\\DistorcaoGenero -->
<g id="node11" class="node"><title>\\Unicef\\TrajetoriaEscolar\\Model\\DistorcaoGenero</title>
<polygon fill="none" stroke="black" points="412.5,-984 294.5,-984 294.5,-948 412.5,-948 412.5,-984"/>
<text text-anchor="middle" x="353.5" y="-963.2" font-family="Courier,monospace" font-size="11.00">DistorcaoGenero</text>
</g>
<!-- \\Unicef\\TrajetoriaEscolar\\Model\\DistorcaoGenero&#45;&gt;\\Unicef\\TrajetoriaEscolar\\Model\\Distorcao -->
<g id="edge2" class="edge"><title>\\Unicef\\TrajetoriaEscolar\\Model\\DistorcaoGenero&#45;&gt;\\Unicef\\TrajetoriaEscolar\\Model\\Distorcao</title>
<path fill="none" stroke="black" d="M294.287,-966C255.691,-966 205.514,-966 168.397,-966"/>
<polygon fill="none" stroke="black" points="168.295,-962.5 158.295,-966 168.295,-969.5 168.295,-962.5"/>
</g>
<!-- \\Unicef\\TrajetoriaEscolar\\Model\\DistorcaoRaca -->
<g id="node12" class="node"><title>\\Unicef\\TrajetoriaEscolar\\Model\\DistorcaoRaca</title>
<polygon fill="none" stroke="black" points="405.5,-930 301.5,-930 301.5,-894 405.5,-894 405.5,-930"/>
<text text-anchor="middle" x="353.5" y="-909.2" font-family="Courier,monospace" font-size="11.00">DistorcaoRaca</text>
</g>
<!-- \\Unicef\\TrajetoriaEscolar\\Model\\DistorcaoRaca&#45;&gt;\\Unicef\\TrajetoriaEscolar\\Model\\Distorcao -->
<g id="edge3" class="edge"><title>\\Unicef\\TrajetoriaEscolar\\Model\\DistorcaoRaca&#45;&gt;\\Unicef\\TrajetoriaEscolar\\Model\\Distorcao</title>
<path fill="none" stroke="black" d="M301.4,-923.717C261.951,-932.763 207.62,-945.221 168.156,-954.27"/>
<polygon fill="none" stroke="black" points="167.173,-950.904 158.208,-956.551 168.738,-957.727 167.173,-950.904"/>
</g>
<!-- \\Unicef\\TrajetoriaEscolar\\Model\\Escola -->
<g id="node13" class="node"><title>\\Unicef\\TrajetoriaEscolar\\Model\\Escola</title>
<polygon fill="none" stroke="black" points="382,-876 325,-876 325,-840 382,-840 382,-876"/>
<text text-anchor="middle" x="353.5" y="-855.2" font-family="Courier,monospace" font-size="11.00">Escola</text>
</g>
<!-- \\Unicef\\TrajetoriaEscolar\\Model\\Escola&#45;&gt;\\Unicef\\TrajetoriaEscolar\\Contract\\IDistorcao -->
<g id="edge4" class="edge"><title>\\Unicef\\TrajetoriaEscolar\\Model\\Escola&#45;&gt;\\Unicef\\TrajetoriaEscolar\\Contract\\IDistorcao</title>
<path fill="none" stroke="black" stroke-dasharray="1,5" d="M324.795,-856.21C303.855,-853.556 275.484,-847.022 256,-831 213.32,-795.905 237.581,-760.508 200,-720 190.333,-709.58 178.006,-700.592 165.828,-693.225"/>
<polygon fill="none" stroke="black" points="167.438,-690.113 157.026,-688.15 163.941,-696.177 167.438,-690.113"/>
</g>
<!-- \\Unicef\\TrajetoriaEscolar\\Model\\Estado -->
<g id="node14" class="node"><title>\\Unicef\\TrajetoriaEscolar\\Model\\Estado</title>
<polygon fill="none" stroke="black" points="382,-822 325,-822 325,-786 382,-786 382,-822"/>
<text text-anchor="middle" x="353.5" y="-801.2" font-family="Courier,monospace" font-size="11.00">Estado</text>
</g>
<!-- \\Unicef\\TrajetoriaEscolar\\Model\\Estado&#45;&gt;\\Unicef\\TrajetoriaEscolar\\Contract\\IDistorcao -->
<g id="edge5" class="edge"><title>\\Unicef\\TrajetoriaEscolar\\Model\\Estado&#45;&gt;\\Unicef\\TrajetoriaEscolar\\Contract\\IDistorcao</title>
<path fill="none" stroke="black" stroke-dasharray="1,5" d="M324.788,-800.18C304.635,-796.497 277.27,-789.564 256,-777 225.422,-758.938 227.876,-742.004 200,-720 187.769,-710.346 173.524,-701.132 160.322,-693.304"/>
<polygon fill="none" stroke="black" points="161.793,-690.111 151.387,-688.118 158.279,-696.165 161.793,-690.111"/>
</g>
<!-- \\Unicef\\TrajetoriaEscolar\\Model\\Municipio -->
<g id="node15" class="node"><title>\\Unicef\\TrajetoriaEscolar\\Model\\Municipio</title>
<polygon fill="none" stroke="black" points="392,-768 315,-768 315,-732 392,-732 392,-768"/>
<text text-anchor="middle" x="353.5" y="-747.2" font-family="Courier,monospace" font-size="11.00">Municipio</text>
</g>
<!-- \\Unicef\\TrajetoriaEscolar\\Model\\Municipio&#45;&gt;\\Unicef\\TrajetoriaEscolar\\Contract\\IDistorcao -->
<g id="edge6" class="edge"><title>\\Unicef\\TrajetoriaEscolar\\Model\\Municipio&#45;&gt;\\Unicef\\TrajetoriaEscolar\\Contract\\IDistorcao</title>
<path fill="none" stroke="black" stroke-dasharray="1,5" d="M314.798,-738.699C296.919,-733.233 275.297,-726.467 256,-720 226.676,-710.173 194.134,-698.509 167.913,-688.919"/>
<polygon fill="none" stroke="black" points="168.787,-685.512 158.193,-685.354 166.376,-692.084 168.787,-685.512"/>
</g>
<!-- \\Unicef\\TrajetoriaEscolar\\Repository\\MySQLDistorcaoRepository -->
<g id="node16" class="node"><title>\\Unicef\\TrajetoriaEscolar\\Repository\\MySQLDistorcaoRepository</title>
<polygon fill="none" stroke="black" points="443,-688 264,-688 264,-652 443,-652 443,-688"/>
<text text-anchor="middle" x="353.5" y="-667.2" font-family="Courier,monospace" font-size="11.00">MySQLDistorcaoRepository</text>
</g>
<!-- \\Unicef\\TrajetoriaEscolar\\Repository\\MySQLDistorcaoRepository&#45;&gt;\\Unicef\\TrajetoriaEscolar\\Contract\\IDistorcaoRepository -->
<g id="edge7" class="edge"><title>\\Unicef\\TrajetoriaEscolar\\Repository\\MySQLDistorcaoRepository&#45;&gt;\\Unicef\\TrajetoriaEscolar\\Contract\\IDistorcaoRepository</title>
<path fill="none" stroke="black" stroke-dasharray="1,5" d="M273.754,-651.944C250.706,-646.659 225.409,-640.858 201.99,-635.488"/>
<polygon fill="none" stroke="black" points="202.61,-632.04 192.081,-633.216 201.046,-638.863 202.61,-632.04"/>
</g>
<!-- \\Unicef\\TrajetoriaEscolar\\Repository\\MySQLEscolaRepository -->
<g id="node17" class="node"><title>\\Unicef\\TrajetoriaEscolar\\Repository\\MySQLEscolaRepository</title>
<polygon fill="none" stroke="black" points="432.5,-634 274.5,-634 274.5,-598 432.5,-598 432.5,-634"/>
<text text-anchor="middle" x="353.5" y="-613.2" font-family="Courier,monospace" font-size="11.00">MySQLEscolaRepository</text>
</g>
<!-- \\Unicef\\TrajetoriaEscolar\\Repository\\MySQLEscolaRepository&#45;&gt;\\Unicef\\TrajetoriaEscolar\\Contract\\IEscolaRepository -->
<g id="edge8" class="edge"><title>\\Unicef\\TrajetoriaEscolar\\Repository\\MySQLEscolaRepository&#45;&gt;\\Unicef\\TrajetoriaEscolar\\Contract\\IEscolaRepository</title>
<path fill="none" stroke="black" stroke-dasharray="1,5" d="M274.409,-598.094C247.696,-591.969 217.9,-585.136 191.48,-579.078"/>
<polygon fill="none" stroke="black" points="192.063,-575.621 181.533,-576.797 190.498,-582.444 192.063,-575.621"/>
</g>
<!-- \\Unicef\\TrajetoriaEscolar\\Repository\\MySQLEstadoRepository -->
<g id="node18" class="node"><title>\\Unicef\\TrajetoriaEscolar\\Repository\\MySQLEstadoRepository</title>
<polygon fill="none" stroke="black" points="432.5,-580 274.5,-580 274.5,-544 432.5,-544 432.5,-580"/>
<text text-anchor="middle" x="353.5" y="-559.2" font-family="Courier,monospace" font-size="11.00">MySQLEstadoRepository</text>
</g>
<!-- \\Unicef\\TrajetoriaEscolar\\Repository\\MySQLEstadoRepository&#45;&gt;\\Unicef\\TrajetoriaEscolar\\Contract\\IEstadoRepository -->
<g id="edge9" class="edge"><title>\\Unicef\\TrajetoriaEscolar\\Repository\\MySQLEstadoRepository&#45;&gt;\\Unicef\\TrajetoriaEscolar\\Contract\\IEstadoRepository</title>
<path fill="none" stroke="black" stroke-dasharray="1,5" d="M274.409,-544.094C247.696,-537.969 217.9,-531.136 191.48,-525.078"/>
<polygon fill="none" stroke="black" points="192.063,-521.621 181.533,-522.797 190.498,-528.444 192.063,-521.621"/>
</g>
<!-- \\Unicef\\TrajetoriaEscolar\\Repository\\MySQLMapaRepository -->
<g id="node19" class="node"><title>\\Unicef\\TrajetoriaEscolar\\Repository\\MySQLMapaRepository</title>
<polygon fill="none" stroke="black" points="426,-526 281,-526 281,-490 426,-490 426,-526"/>
<text text-anchor="middle" x="353.5" y="-505.2" font-family="Courier,monospace" font-size="11.00">MySQLMapaRepository</text>
</g>
<!-- \\Unicef\\TrajetoriaEscolar\\Repository\\MySQLMapaRepository&#45;&gt;\\Unicef\\TrajetoriaEscolar\\Contract\\IMapaRepository -->
<g id="edge10" class="edge"><title>\\Unicef\\TrajetoriaEscolar\\Repository\\MySQLMapaRepository&#45;&gt;\\Unicef\\TrajetoriaEscolar\\Contract\\IMapaRepository</title>
<path fill="none" stroke="black" stroke-dasharray="1,5" d="M280.883,-491.578C250.488,-484.609 215.222,-476.522 185.208,-469.64"/>
<polygon fill="none" stroke="black" points="185.775,-466.179 175.245,-467.356 184.21,-473.002 185.775,-466.179"/>
</g>
<!-- \\Unicef\\TrajetoriaEscolar\\Repository\\MySQLMunicipioRepository -->
<g id="node20" class="node"><title>\\Unicef\\TrajetoriaEscolar\\Repository\\MySQLMunicipioRepository</title>
<polygon fill="none" stroke="black" points="443,-472 264,-472 264,-436 443,-436 443,-472"/>
<text text-anchor="middle" x="353.5" y="-451.2" font-family="Courier,monospace" font-size="11.00">MySQLMunicipioRepository</text>
</g>
<!-- \\Unicef\\TrajetoriaEscolar\\Repository\\MySQLMunicipioRepository&#45;&gt;\\Unicef\\TrajetoriaEscolar\\Contract\\IMunicipioRepository -->
<g id="edge11" class="edge"><title>\\Unicef\\TrajetoriaEscolar\\Repository\\MySQLMunicipioRepository&#45;&gt;\\Unicef\\TrajetoriaEscolar\\Contract\\IMunicipioRepository</title>
<path fill="none" stroke="black" stroke-dasharray="1,5" d="M273.754,-435.944C250.706,-430.659 225.409,-424.858 201.99,-419.488"/>
<polygon fill="none" stroke="black" points="202.61,-416.04 192.081,-417.216 201.046,-422.863 202.61,-416.04"/>
</g>
<!-- \\Unicef\\TrajetoriaEscolar\\Repository\\MySQLPainelRepository -->
<g id="node21" class="node"><title>\\Unicef\\TrajetoriaEscolar\\Repository\\MySQLPainelRepository</title>
<polygon fill="none" stroke="black" points="432.5,-418 274.5,-418 274.5,-382 432.5,-382 432.5,-418"/>
<text text-anchor="middle" x="353.5" y="-397.2" font-family="Courier,monospace" font-size="11.00">MySQLPainelRepository</text>
</g>
<!-- \\Unicef\\TrajetoriaEscolar\\Repository\\MySQLPainelRepository&#45;&gt;\\Unicef\\TrajetoriaEscolar\\Contract\\IPainelRepository -->
<g id="edge12" class="edge"><title>\\Unicef\\TrajetoriaEscolar\\Repository\\MySQLPainelRepository&#45;&gt;\\Unicef\\TrajetoriaEscolar\\Contract\\IPainelRepository</title>
<path fill="none" stroke="black" stroke-dasharray="1,5" d="M274.409,-382.094C247.696,-375.969 217.9,-369.136 191.48,-363.078"/>
<polygon fill="none" stroke="black" points="192.063,-359.621 181.533,-360.797 190.498,-366.444 192.063,-359.621"/>
</g>
<!-- \\Unicef\\TrajetoriaEscolar\\Service\\DistorcaoService -->
<g id="node22" class="node"><title>\\Unicef\\TrajetoriaEscolar\\Service\\DistorcaoService</title>
<polygon fill="none" stroke="black" points="416,-338 291,-338 291,-302 416,-302 416,-338"/>
<text text-anchor="middle" x="353.5" y="-317.2" font-family="Courier,monospace" font-size="11.00">DistorcaoService</text>
</g>
<!-- \\Unicef\\TrajetoriaEscolar\\Service\\DistorcaoService&#45;&gt;\\Unicef\\TrajetoriaEscolar\\Contract\\IService -->
<g id="edge13" class="edge"><title>\\Unicef\\TrajetoriaEscolar\\Service\\DistorcaoService&#45;&gt;\\Unicef\\TrajetoriaEscolar\\Contract\\IService</title>
<path fill="none" stroke="black" stroke-dasharray="1,5" d="M290.933,-312.68C250.496,-307.872 198.514,-301.692 161.948,-297.344"/>
<polygon fill="none" stroke="black" points="161.939,-293.818 151.596,-296.113 161.112,-300.77 161.939,-293.818"/>
</g>
<!-- \\Unicef\\TrajetoriaEscolar\\Service\\EscolaService -->
<g id="node23" class="node"><title>\\Unicef\\TrajetoriaEscolar\\Service\\EscolaService</title>
<polygon fill="none" stroke="black" points="405.5,-284 301.5,-284 301.5,-248 405.5,-248 405.5,-284"/>
<text text-anchor="middle" x="353.5" y="-263.2" font-family="Courier,monospace" font-size="11.00">EscolaService</text>
</g>
<!-- \\Unicef\\TrajetoriaEscolar\\Service\\EscolaService&#45;&gt;\\Unicef\\TrajetoriaEscolar\\Contract\\IService -->
<g id="edge14" class="edge"><title>\\Unicef\\TrajetoriaEscolar\\Service\\EscolaService&#45;&gt;\\Unicef\\TrajetoriaEscolar\\Contract\\IService</title>
<path fill="none" stroke="black" stroke-dasharray="1,5" d="M301.4,-271.642C259.711,-276.244 201.402,-282.682 161.583,-287.078"/>
<polygon fill="none" stroke="black" points="161.184,-283.601 151.628,-288.177 161.952,-290.558 161.184,-283.601"/>
</g>
<!-- \\Unicef\\TrajetoriaEscolar\\Service\\EstadoService -->
<g id="node24" class="node"><title>\\Unicef\\TrajetoriaEscolar\\Service\\EstadoService</title>
<polygon fill="none" stroke="black" points="405.5,-230 301.5,-230 301.5,-194 405.5,-194 405.5,-230"/>
<text text-anchor="middle" x="353.5" y="-209.2" font-family="Courier,monospace" font-size="11.00">EstadoService</text>
</g>
<!-- \\Unicef\\TrajetoriaEscolar\\Service\\EstadoService&#45;&gt;\\Unicef\\TrajetoriaEscolar\\Contract\\IService -->
<g id="edge15" class="edge"><title>\\Unicef\\TrajetoriaEscolar\\Service\\EstadoService&#45;&gt;\\Unicef\\TrajetoriaEscolar\\Contract\\IService</title>
<path fill="none" stroke="black" stroke-dasharray="1,5" d="M301.153,-225.427C286.485,-229.517 270.539,-234.205 256,-239 223.888,-249.59 188.267,-263.21 161.124,-273.991"/>
<polygon fill="none" stroke="black" points="159.518,-270.864 151.53,-277.824 162.115,-277.364 159.518,-270.864"/>
</g>
<!-- \\Unicef\\TrajetoriaEscolar\\Service\\MunicipioService -->
<g id="node25" class="node"><title>\\Unicef\\TrajetoriaEscolar\\Service\\MunicipioService</title>
<polygon fill="none" stroke="black" points="416,-176 291,-176 291,-140 416,-140 416,-176"/>
<text text-anchor="middle" x="353.5" y="-155.2" font-family="Courier,monospace" font-size="11.00">MunicipioService</text>
</g>
<!-- \\Unicef\\TrajetoriaEscolar\\Service\\MunicipioService&#45;&gt;\\Unicef\\TrajetoriaEscolar\\Contract\\IService -->
<g id="edge16" class="edge"><title>\\Unicef\\TrajetoriaEscolar\\Service\\MunicipioService&#45;&gt;\\Unicef\\TrajetoriaEscolar\\Contract\\IService</title>
<path fill="none" stroke="black" stroke-dasharray="1,5" d="M290.943,-171.409C279.037,-175.055 266.888,-179.545 256,-185 212.818,-206.633 169.792,-242.528 143.302,-266.711"/>
<polygon fill="none" stroke="black" points="140.592,-264.451 135.63,-273.812 145.347,-269.588 140.592,-264.451"/>
</g>
<!-- \\Unicef\\TrajetoriaEscolar\\BackEnd -->
<g id="node26" class="node"><title>\\Unicef\\TrajetoriaEscolar\\BackEnd</title>
<polygon fill="none" stroke="black" points="385.5,-122 321.5,-122 321.5,-86 385.5,-86 385.5,-122"/>
<text text-anchor="middle" x="353.5" y="-101.2" font-family="Courier,monospace" font-size="11.00">BackEnd</text>
</g>
<!-- \\Unicef\\TrajetoriaEscolar\\FrontEnd -->
<g id="node27" class="node"><title>\\Unicef\\TrajetoriaEscolar\\FrontEnd</title>
<polygon fill="none" stroke="black" points="389,-68 318,-68 318,-32 389,-32 389,-68"/>
<text text-anchor="middle" x="353.5" y="-47.2" font-family="Courier,monospace" font-size="11.00">FrontEnd</text>
</g>
</g>
</svg>
