<?xml version="1.0" encoding="UTF-8" standalone="no"?>
<!DOCTYPE svg PUBLIC "-//W3C//DTD SVG 1.1//EN"
 "http://www.w3.org/Graphics/SVG/1.1/DTD/svg11.dtd">
<!-- Generated by graphviz version 2.38.0 (20140413.2041)
 -->
<!-- Title: G Pages: 1 -->
<svg width="475pt" height="1130pt"
 viewBox="0.00 0.00 475.00 1130.00" xmlns="http://www.w3.org/2000/svg" xmlns:xlink="http://www.w3.org/1999/xlink">
<g id="graph0" class="graph" transform="scale(1 1) rotate(0) translate(4 1126)">
<title>G</title>
<polygon fill="white" stroke="none" points="-4,4 -4,-1126 471,-1126 471,4 -4,4"/>
<g id="clust1" class="cluster"><title>cluster_Global</title>
<path fill="none" stroke="gray" d="M20,-8C20,-8 447,-8 447,-8 453,-8 459,-14 459,-20 459,-20 459,-1102 459,-1102 459,-1108 453,-1114 447,-1114 447,-1114 20,-1114 20,-1114 14,-1114 8,-1108 8,-1102 8,-1102 8,-20 8,-20 8,-14 14,-8 20,-8"/>
<text text-anchor="middle" x="233.5" y="-1101.2" font-family="Times New Roman,serif" font-size="11.00" fill="gray">Global</text>
</g>
<g id="clust2" class="cluster"><title>cluster_\Unicef</title>
<path fill="none" stroke="gray" d="M28,-16C28,-16 439,-16 439,-16 445,-16 451,-22 451,-28 451,-28 451,-1074 451,-1074 451,-1080 445,-1086 439,-1086 439,-1086 28,-1086 28,-1086 22,-1086 16,-1080 16,-1074 16,-1074 16,-28 16,-28 16,-22 22,-16 28,-16"/>
<text text-anchor="middle" x="233.5" y="-1073.2" font-family="Times New Roman,serif" font-size="11.00" fill="gray">Unicef</text>
</g>
<g id="clust3" class="cluster"><title>cluster_\Unicef\Contract</title>
<path fill="none" stroke="gray" d="M36,-582C36,-582 180,-582 180,-582 186,-582 192,-588 192,-594 192,-594 192,-1020 192,-1020 192,-1026 186,-1032 180,-1032 180,-1032 36,-1032 36,-1032 30,-1032 24,-1026 24,-1020 24,-1020 24,-594 24,-594 24,-588 30,-582 36,-582"/>
<text text-anchor="middle" x="108" y="-1019.2" font-family="Times New Roman,serif" font-size="11.00" fill="gray">Contract</text>
</g>
<g id="clust4" class="cluster"><title>cluster_\Unicef\Repository</title>
<path fill="none" stroke="gray" d="M260,-716C260,-716 431,-716 431,-716 437,-716 443,-722 443,-728 443,-728 443,-1046 443,-1046 443,-1052 437,-1058 431,-1058 431,-1058 260,-1058 260,-1058 254,-1058 248,-1052 248,-1046 248,-1046 248,-728 248,-728 248,-722 254,-716 260,-716"/>
<text text-anchor="middle" x="345.5" y="-1045.2" font-family="Times New Roman,serif" font-size="11.00" fill="gray">Repository</text>
</g>
<g id="clust6" class="cluster"><title>cluster_\Unicef\Service</title>
<path fill="none" stroke="gray" d="M287,-474C287,-474 404,-474 404,-474 410,-474 416,-480 416,-486 416,-486 416,-696 416,-696 416,-702 410,-708 404,-708 404,-708 287,-708 287,-708 281,-708 275,-702 275,-696 275,-696 275,-486 275,-486 275,-480 281,-474 287,-474"/>
<text text-anchor="middle" x="345.5" y="-695.2" font-family="Times New Roman,serif" font-size="11.00" fill="gray">Service</text>
</g>
<g id="clust5" class="cluster"><title>cluster_\Unicef\Model</title>
<path fill="none" stroke="gray" d="M70,-124C70,-124 400.5,-124 400.5,-124 406.5,-124 412.5,-130 412.5,-136 412.5,-136 412.5,-454 412.5,-454 412.5,-460 406.5,-466 400.5,-466 400.5,-466 70,-466 70,-466 64,-466 58,-460 58,-454 58,-454 58,-136 58,-136 58,-130 64,-124 70,-124"/>
<text text-anchor="middle" x="235.25" y="-453.2" font-family="Times New Roman,serif" font-size="11.00" fill="gray">Model</text>
</g>
<!-- \\Unicef\\Contract\\IEscolaRepository -->
<g id="node1" class="node"><title>\\Unicef\\Contract\\IEscolaRepository</title>
<polygon fill="none" stroke="black" points="173.5,-896 42.5,-896 42.5,-860 173.5,-860 173.5,-896"/>
<text text-anchor="middle" x="108" y="-875.2" font-family="Courier,monospace" font-size="11.00">IEscolaRepository</text>
</g>
<!-- \\Unicef\\Contract\\IEstadoRepository -->
<g id="node2" class="node"><title>\\Unicef\\Contract\\IEstadoRepository</title>
<polygon fill="none" stroke="black" points="173.5,-842 42.5,-842 42.5,-806 173.5,-806 173.5,-842"/>
<text text-anchor="middle" x="108" y="-821.2" font-family="Courier,monospace" font-size="11.00">IEstadoRepository</text>
</g>
<!-- \\Unicef\\Contract\\IPainelRepository -->
<g id="node3" class="node"><title>\\Unicef\\Contract\\IPainelRepository</title>
<polygon fill="none" stroke="black" points="173.5,-788 42.5,-788 42.5,-752 173.5,-752 173.5,-788"/>
<text text-anchor="middle" x="108" y="-767.2" font-family="Courier,monospace" font-size="11.00">IPainelRepository</text>
</g>
<!-- \\Unicef\\Contract\\IMapaRepository -->
<g id="node4" class="node"><title>\\Unicef\\Contract\\IMapaRepository</title>
<polygon fill="none" stroke="black" points="167,-734 49,-734 49,-698 167,-698 167,-734"/>
<text text-anchor="middle" x="108" y="-713.2" font-family="Courier,monospace" font-size="11.00">IMapaRepository</text>
</g>
<!-- \\Unicef\\Contract\\IDistorcao -->
<g id="node5" class="node"><title>\\Unicef\\Contract\\IDistorcao</title>
<polygon fill="none" stroke="black" points="150,-626 66,-626 66,-590 150,-590 150,-626"/>
<text text-anchor="middle" x="108" y="-605.2" font-family="Courier,monospace" font-size="11.00">IDistorcao</text>
</g>
<!-- \\Unicef\\Contract\\IDistorcaoRepository -->
<g id="node6" class="node"><title>\\Unicef\\Contract\\IDistorcaoRepository</title>
<polygon fill="none" stroke="black" points="184,-1004 32,-1004 32,-968 184,-968 184,-1004"/>
<text text-anchor="middle" x="108" y="-983.2" font-family="Courier,monospace" font-size="11.00">IDistorcaoRepository</text>
</g>
<!-- \\Unicef\\Contract\\IMunicipioRepository -->
<g id="node7" class="node"><title>\\Unicef\\Contract\\IMunicipioRepository</title>
<polygon fill="none" stroke="black" points="184,-950 32,-950 32,-914 184,-914 184,-950"/>
<text text-anchor="middle" x="108" y="-929.2" font-family="Courier,monospace" font-size="11.00">IMunicipioRepository</text>
</g>
<!-- \\Unicef\\Contract\\IService -->
<g id="node8" class="node"><title>\\Unicef\\Contract\\IService</title>
<polygon fill="none" stroke="black" points="143.5,-680 72.5,-680 72.5,-644 143.5,-644 143.5,-680"/>
<text text-anchor="middle" x="108" y="-659.2" font-family="Courier,monospace" font-size="11.00">IService</text>
</g>
<!-- \\Unicef\\Repository\\MySQLPainelRepository -->
<g id="node9" class="node"><title>\\Unicef\\Repository\\MySQLPainelRepository</title>
<polygon fill="none" stroke="black" points="424.5,-814 266.5,-814 266.5,-778 424.5,-778 424.5,-814"/>
<text text-anchor="middle" x="345.5" y="-793.2" font-family="Courier,monospace" font-size="11.00">MySQLPainelRepository</text>
</g>
<!-- \\Unicef\\Repository\\MySQLPainelRepository&#45;&gt;\\Unicef\\Contract\\IPainelRepository -->
<g id="edge1" class="edge"><title>\\Unicef\\Repository\\MySQLPainelRepository&#45;&gt;\\Unicef\\Contract\\IPainelRepository</title>
<path fill="none" stroke="black" stroke-dasharray="1,5" d="M266.409,-787.378C239.696,-784.429 209.9,-781.14 183.48,-778.223"/>
<polygon fill="none" stroke="black" points="183.857,-774.743 173.533,-777.125 183.089,-781.701 183.857,-774.743"/>
</g>
<!-- \\Unicef\\Repository\\MySQLEstadoRepository -->
<g id="node10" class="node"><title>\\Unicef\\Repository\\MySQLEstadoRepository</title>
<polygon fill="none" stroke="black" points="424.5,-868 266.5,-868 266.5,-832 424.5,-832 424.5,-868"/>
<text text-anchor="middle" x="345.5" y="-847.2" font-family="Courier,monospace" font-size="11.00">MySQLEstadoRepository</text>
</g>
<!-- \\Unicef\\Repository\\MySQLEstadoRepository&#45;&gt;\\Unicef\\Contract\\IEstadoRepository -->
<g id="edge2" class="edge"><title>\\Unicef\\Repository\\MySQLEstadoRepository&#45;&gt;\\Unicef\\Contract\\IEstadoRepository</title>
<path fill="none" stroke="black" stroke-dasharray="1,5" d="M266.409,-841.378C239.696,-838.429 209.9,-835.14 183.48,-832.223"/>
<polygon fill="none" stroke="black" points="183.857,-828.743 173.533,-831.125 183.089,-835.701 183.857,-828.743"/>
</g>
<!-- \\Unicef\\Repository\\MySQLDistorcaoRepository -->
<g id="node11" class="node"><title>\\Unicef\\Repository\\MySQLDistorcaoRepository</title>
<polygon fill="none" stroke="black" points="435,-1030 256,-1030 256,-994 435,-994 435,-1030"/>
<text text-anchor="middle" x="345.5" y="-1009.2" font-family="Courier,monospace" font-size="11.00">MySQLDistorcaoRepository</text>
</g>
<!-- \\Unicef\\Repository\\MySQLDistorcaoRepository&#45;&gt;\\Unicef\\Contract\\IDistorcaoRepository -->
<g id="edge3" class="edge"><title>\\Unicef\\Repository\\MySQLDistorcaoRepository&#45;&gt;\\Unicef\\Contract\\IDistorcaoRepository</title>
<path fill="none" stroke="black" stroke-dasharray="1,5" d="M255.803,-1002.21C235.614,-999.979 214.21,-997.616 194.172,-995.403"/>
<polygon fill="none" stroke="black" points="194.469,-991.915 184.145,-994.296 193.701,-998.873 194.469,-991.915"/>
</g>
<!-- \\Unicef\\Repository\\MySQLMapaRepository -->
<g id="node12" class="node"><title>\\Unicef\\Repository\\MySQLMapaRepository</title>
<polygon fill="none" stroke="black" points="418,-760 273,-760 273,-724 418,-724 418,-760"/>
<text text-anchor="middle" x="345.5" y="-739.2" font-family="Courier,monospace" font-size="11.00">MySQLMapaRepository</text>
</g>
<!-- \\Unicef\\Repository\\MySQLMapaRepository&#45;&gt;\\Unicef\\Contract\\IMapaRepository -->
<g id="edge9" class="edge"><title>\\Unicef\\Repository\\MySQLMapaRepository&#45;&gt;\\Unicef\\Contract\\IMapaRepository</title>
<path fill="none" stroke="black" stroke-dasharray="1,5" d="M272.883,-734.093C242.488,-730.738 207.222,-726.844 177.208,-723.53"/>
<polygon fill="none" stroke="black" points="177.569,-720.049 167.245,-722.43 176.801,-727.007 177.569,-720.049"/>
</g>
<!-- \\Unicef\\Repository\\MySQLMunicipioRepository -->
<g id="node13" class="node"><title>\\Unicef\\Repository\\MySQLMunicipioRepository</title>
<polygon fill="none" stroke="black" points="435,-976 256,-976 256,-940 435,-940 435,-976"/>
<text text-anchor="middle" x="345.5" y="-955.2" font-family="Courier,monospace" font-size="11.00">MySQLMunicipioRepository</text>
</g>
<!-- \\Unicef\\Repository\\MySQLMunicipioRepository&#45;&gt;\\Unicef\\Contract\\IMunicipioRepository -->
<g id="edge10" class="edge"><title>\\Unicef\\Repository\\MySQLMunicipioRepository&#45;&gt;\\Unicef\\Contract\\IMunicipioRepository</title>
<path fill="none" stroke="black" stroke-dasharray="1,5" d="M255.803,-948.208C235.614,-945.979 214.21,-943.616 194.172,-941.403"/>
<polygon fill="none" stroke="black" points="194.469,-937.915 184.145,-940.296 193.701,-944.873 194.469,-937.915"/>
</g>
<!-- \\Unicef\\Repository\\MySQLEscolaRepository -->
<g id="node14" class="node"><title>\\Unicef\\Repository\\MySQLEscolaRepository</title>
<polygon fill="none" stroke="black" points="424.5,-922 266.5,-922 266.5,-886 424.5,-886 424.5,-922"/>
<text text-anchor="middle" x="345.5" y="-901.2" font-family="Courier,monospace" font-size="11.00">MySQLEscolaRepository</text>
</g>
<!-- \\Unicef\\Repository\\MySQLEscolaRepository&#45;&gt;\\Unicef\\Contract\\IEscolaRepository -->
<g id="edge12" class="edge"><title>\\Unicef\\Repository\\MySQLEscolaRepository&#45;&gt;\\Unicef\\Contract\\IEscolaRepository</title>
<path fill="none" stroke="black" stroke-dasharray="1,5" d="M266.409,-895.378C239.696,-892.429 209.9,-889.14 183.48,-886.223"/>
<polygon fill="none" stroke="black" points="183.857,-882.743 173.533,-885.125 183.089,-889.701 183.857,-882.743"/>
</g>
<!-- \\Unicef\\Model\\DistorcaoAno -->
<g id="node15" class="node"><title>\\Unicef\\Model\\DistorcaoAno</title>
<polygon fill="none" stroke="black" points="394.5,-276 296.5,-276 296.5,-240 394.5,-240 394.5,-276"/>
<text text-anchor="middle" x="345.5" y="-255.2" font-family="Courier,monospace" font-size="11.00">DistorcaoAno</text>
</g>
<!-- \\Unicef\\Model\\Distorcao -->
<g id="node20" class="node"><title>\\Unicef\\Model\\Distorcao</title>
<polygon fill="none" stroke="black" points="150,-222 66,-222 66,-186 150,-186 150,-222"/>
<text text-anchor="start" x="74" y="-207.2" font-family="Courier,monospace" font-size="11.00">«abstract»</text>
<text text-anchor="start" x="77.5" y="-195.2" font-family="Courier,monospace" font-size="11.00">Distorcao</text>
</g>
<!-- \\Unicef\\Model\\DistorcaoAno&#45;&gt;\\Unicef\\Model\\Distorcao -->
<g id="edge4" class="edge"><title>\\Unicef\\Model\\DistorcaoAno&#45;&gt;\\Unicef\\Model\\Distorcao</title>
<path fill="none" stroke="black" d="M296.275,-246.942C256.577,-237.839 200.455,-224.97 160.013,-215.697"/>
<polygon fill="none" stroke="black" points="160.618,-212.245 150.088,-213.422 159.053,-219.068 160.618,-212.245"/>
</g>
<!-- \\Unicef\\Model\\DistorcaoRaca -->
<g id="node16" class="node"><title>\\Unicef\\Model\\DistorcaoRaca</title>
<polygon fill="none" stroke="black" points="397.5,-222 293.5,-222 293.5,-186 397.5,-186 397.5,-222"/>
<text text-anchor="middle" x="345.5" y="-201.2" font-family="Courier,monospace" font-size="11.00">DistorcaoRaca</text>
</g>
<!-- \\Unicef\\Model\\DistorcaoRaca&#45;&gt;\\Unicef\\Model\\Distorcao -->
<g id="edge5" class="edge"><title>\\Unicef\\Model\\DistorcaoRaca&#45;&gt;\\Unicef\\Model\\Distorcao</title>
<path fill="none" stroke="black" d="M293.4,-204C254.035,-204 199.85,-204 160.408,-204"/>
<polygon fill="none" stroke="black" points="160.208,-200.5 150.208,-204 160.208,-207.5 160.208,-200.5"/>
</g>
<!-- \\Unicef\\Model\\Municipio -->
<g id="node17" class="node"><title>\\Unicef\\Model\\Municipio</title>
<polygon fill="none" stroke="black" points="384,-438 307,-438 307,-402 384,-402 384,-438"/>
<text text-anchor="middle" x="345.5" y="-417.2" font-family="Courier,monospace" font-size="11.00">Municipio</text>
</g>
<!-- \\Unicef\\Model\\Municipio&#45;&gt;\\Unicef\\Contract\\IDistorcao -->
<g id="edge7" class="edge"><title>\\Unicef\\Model\\Municipio&#45;&gt;\\Unicef\\Contract\\IDistorcao</title>
<path fill="none" stroke="black" stroke-dasharray="1,5" d="M306.759,-436.268C288.272,-445.039 266.144,-456.773 248,-470 202.035,-503.508 156.793,-552.146 130.953,-581.835"/>
<polygon fill="none" stroke="black" points="128.071,-579.818 124.195,-589.678 133.374,-584.387 128.071,-579.818"/>
</g>
<!-- \\Unicef\\Model\\Escola -->
<g id="node18" class="node"><title>\\Unicef\\Model\\Escola</title>
<polygon fill="none" stroke="black" points="374,-384 317,-384 317,-348 374,-348 374,-384"/>
<text text-anchor="middle" x="345.5" y="-363.2" font-family="Courier,monospace" font-size="11.00">Escola</text>
</g>
<!-- \\Unicef\\Model\\Escola&#45;&gt;\\Unicef\\Contract\\IDistorcao -->
<g id="edge13" class="edge"><title>\\Unicef\\Model\\Escola&#45;&gt;\\Unicef\\Contract\\IDistorcao</title>
<path fill="none" stroke="black" stroke-dasharray="1,5" d="M316.832,-368.451C296.182,-371.457 268.171,-378.143 248,-393 230.366,-405.989 157.491,-526.422 124.889,-581.154"/>
<polygon fill="none" stroke="black" points="121.756,-579.576 119.654,-589.96 127.773,-583.153 121.756,-579.576"/>
</g>
<!-- \\Unicef\\Model\\Estado -->
<g id="node19" class="node"><title>\\Unicef\\Model\\Estado</title>
<polygon fill="none" stroke="black" points="374,-330 317,-330 317,-294 374,-294 374,-330"/>
<text text-anchor="middle" x="345.5" y="-309.2" font-family="Courier,monospace" font-size="11.00">Estado</text>
</g>
<!-- \\Unicef\\Model\\Estado&#45;&gt;\\Unicef\\Contract\\IDistorcao -->
<g id="edge14" class="edge"><title>\\Unicef\\Model\\Estado&#45;&gt;\\Unicef\\Contract\\IDistorcao</title>
<path fill="none" stroke="black" stroke-dasharray="1,5" d="M316.939,-313.396C295.8,-315.828 267.098,-322.255 248,-339 200.389,-380.743 220.83,-413.625 192,-470 171.642,-509.807 144.329,-553.733 126.695,-581.098"/>
<polygon fill="none" stroke="black" points="123.613,-579.418 121.11,-589.713 129.487,-583.226 123.613,-579.418"/>
</g>
<!-- \\Unicef\\Model\\DistorcaoGenero -->
<g id="node21" class="node"><title>\\Unicef\\Model\\DistorcaoGenero</title>
<polygon fill="none" stroke="black" points="404.5,-168 286.5,-168 286.5,-132 404.5,-132 404.5,-168"/>
<text text-anchor="middle" x="345.5" y="-147.2" font-family="Courier,monospace" font-size="11.00">DistorcaoGenero</text>
</g>
<!-- \\Unicef\\Model\\DistorcaoGenero&#45;&gt;\\Unicef\\Model\\Distorcao -->
<g id="edge16" class="edge"><title>\\Unicef\\Model\\DistorcaoGenero&#45;&gt;\\Unicef\\Model\\Distorcao</title>
<path fill="none" stroke="black" d="M286.287,-163.348C247.691,-172.198 197.514,-183.704 160.397,-192.215"/>
<polygon fill="none" stroke="black" points="159.259,-188.885 150.295,-194.531 160.824,-195.708 159.259,-188.885"/>
</g>
<!-- \\Unicef\\Service\\EscolaService -->
<g id="node22" class="node"><title>\\Unicef\\Service\\EscolaService</title>
<polygon fill="none" stroke="black" points="397.5,-680 293.5,-680 293.5,-644 397.5,-644 397.5,-680"/>
<text text-anchor="middle" x="345.5" y="-659.2" font-family="Courier,monospace" font-size="11.00">EscolaService</text>
</g>
<!-- \\Unicef\\Service\\EscolaService&#45;&gt;\\Unicef\\Contract\\IService -->
<g id="edge6" class="edge"><title>\\Unicef\\Service\\EscolaService&#45;&gt;\\Unicef\\Contract\\IService</title>
<path fill="none" stroke="black" stroke-dasharray="1,5" d="M293.4,-662C251.799,-662 193.649,-662 153.837,-662"/>
<polygon fill="none" stroke="black" points="153.628,-658.5 143.628,-662 153.628,-665.5 153.628,-658.5"/>
</g>
<!-- \\Unicef\\Service\\MunicipioService -->
<g id="node23" class="node"><title>\\Unicef\\Service\\MunicipioService</title>
<polygon fill="none" stroke="black" points="408,-626 283,-626 283,-590 408,-590 408,-626"/>
<text text-anchor="middle" x="345.5" y="-605.2" font-family="Courier,monospace" font-size="11.00">MunicipioService</text>
</g>
<!-- \\Unicef\\Service\\MunicipioService&#45;&gt;\\Unicef\\Contract\\IService -->
<g id="edge8" class="edge"><title>\\Unicef\\Service\\MunicipioService&#45;&gt;\\Unicef\\Contract\\IService</title>
<path fill="none" stroke="black" stroke-dasharray="1,5" d="M282.933,-622.117C242.323,-631.429 190.068,-643.411 153.478,-651.801"/>
<polygon fill="none" stroke="black" points="152.56,-648.421 143.596,-654.067 154.125,-655.244 152.56,-648.421"/>
</g>
<!-- \\Unicef\\Service\\DistorcaoService -->
<g id="node24" class="node"><title>\\Unicef\\Service\\DistorcaoService</title>
<polygon fill="none" stroke="black" points="408,-572 283,-572 283,-536 408,-536 408,-572"/>
<text text-anchor="middle" x="345.5" y="-551.2" font-family="Courier,monospace" font-size="11.00">DistorcaoService</text>
</g>
<!-- \\Unicef\\Service\\DistorcaoService&#45;&gt;\\Unicef\\Contract\\IService -->
<g id="edge11" class="edge"><title>\\Unicef\\Service\\DistorcaoService&#45;&gt;\\Unicef\\Contract\\IService</title>
<path fill="none" stroke="black" stroke-dasharray="1,5" d="M282.944,-566.306C270.915,-570.053 258.719,-574.862 248,-581 217.995,-598.18 221.64,-617.198 192,-635 180.199,-642.088 166.322,-647.545 153.328,-651.637"/>
<polygon fill="none" stroke="black" points="152.213,-648.316 143.612,-654.504 154.194,-655.03 152.213,-648.316"/>
</g>
<!-- \\Unicef\\Service\\EstadoService -->
<g id="node25" class="node"><title>\\Unicef\\Service\\EstadoService</title>
<polygon fill="none" stroke="black" points="397.5,-518 293.5,-518 293.5,-482 397.5,-482 397.5,-518"/>
<text text-anchor="middle" x="345.5" y="-497.2" font-family="Courier,monospace" font-size="11.00">EstadoService</text>
</g>
<!-- \\Unicef\\Service\\EstadoService&#45;&gt;\\Unicef\\Contract\\IService -->
<g id="edge15" class="edge"><title>\\Unicef\\Service\\EstadoService&#45;&gt;\\Unicef\\Contract\\IService</title>
<path fill="none" stroke="black" stroke-dasharray="1,5" d="M293.22,-506.234C277.419,-510.168 260.824,-516.574 248,-527 206.047,-561.109 233.233,-600.024 192,-635 181.226,-644.139 167.291,-650.202 153.926,-654.218"/>
<polygon fill="none" stroke="black" points="152.634,-650.941 143.879,-656.907 154.444,-657.703 152.634,-650.941"/>
</g>
<!-- \\Unicef\\BackEnd -->
<g id="node26" class="node"><title>\\Unicef\\BackEnd</title>
<polygon fill="none" stroke="black" points="377.5,-114 313.5,-114 313.5,-78 377.5,-78 377.5,-114"/>
<text text-anchor="middle" x="345.5" y="-93.2" font-family="Courier,monospace" font-size="11.00">BackEnd</text>
</g>
<!-- \\Unicef\\FrontEnd -->
<g id="node27" class="node"><title>\\Unicef\\FrontEnd</title>
<polygon fill="none" stroke="black" points="381,-60 310,-60 310,-24 381,-24 381,-60"/>
<text text-anchor="middle" x="345.5" y="-39.2" font-family="Courier,monospace" font-size="11.00">FrontEnd</text>
</g>
</g>
</svg>
